
<svg width="32" height="32" viewBox="0 0 32 32" fill="none" xmlns="http://www.w3.org/2000/svg">
  <!-- Background with gradient -->
  <defs>
    <linearGradient id="bgGrad" x1="0%" y1="0%" x2="100%" y2="100%">
      <stop offset="0%" style="stop-color:#667eea"/>
      <stop offset="100%" style="stop-color:#764ba2"/>
    </linearGradient>
    <linearGradient id="chartGrad" x1="0%" y1="100%" x2="0%" y2="0%">
      <stop offset="0%" style="stop-color:#00d4aa;stop-opacity:0.8"/>
      <stop offset="100%" style="stop-color:#00d4aa;stop-opacity:0.3"/>
    </linearGradient>
  </defs>
  
  <!-- Background circle -->
  <circle cx="16" cy="16" r="15" fill="url(#bgGrad)" stroke="#ffffff" stroke-width="2"/>
  
  <!-- Chart bars representing trading data -->
  <rect x="5" y="22" width="2.5" height="6" fill="#00d4aa" rx="1"/>
  <rect x="9" y="18" width="2.5" height="10" fill="#00d4aa" rx="1"/>
  <rect x="13" y="14" width="2.5" height="14" fill="#00d4aa" rx="1"/>
  <rect x="17" y="10" width="2.5" height="18" fill="#00d4aa" rx="1"/>
  <rect x="21" y="16" width="2.5" height="12" fill="#00d4aa" rx="1"/>
  <rect x="25" y="20" width="2.5" height="8" fill="#00d4aa" rx="1"/>
  
  <!-- Upward trending line -->
  <path d="M4 26 L8 22 L12 18 L16 14 L20 10 L24 16 L28 20" 
        stroke="#ffffff" 
        stroke-width="2" 
        fill="none" 
        stroke-linecap="round" 
        stroke-linejoin="round"/>
  
  <!-- Arrow pointing up (bullish trend) -->
  <path d="M26 12 L28 10 L30 12" 
        stroke="#ffffff" 
        stroke-width="2" 
        fill="none" 
        stroke-linecap="round" 
        stroke-linejoin="round"/>
  
  <!-- Dollar sign in corner -->
  <circle cx="6" cy="8" r="3" fill="#ffffff"/>
  <path d="M5 6 L5 10 M7 6 L7 10 M4 7 L8 7 M4 9 L8 9" 
        stroke="#667eea" 
        stroke-width="0.8" 
        stroke-linecap="round"/>
</svg>